{"accessors":[{"bufferView":0,"componentType":5121,"count":90,"max":[31],"min":[0],"type":"SCALAR"},{"bufferView":1,"componentType":5126,"count":32,"max":[9.248296737670898,-11.915122985839844,-31.7403621673584],"min":[7.248296737670898,-13.915122985839844,-31.74036407470703],"type":"VEC3"},{"bufferView":2,"componentType":5126,"count":32,"max":[-4.561918487411276e-08,-1.527616859675618e-07,1.0],"min":[-4.561918487411276e-08,-1.527616859675618e-07,1.0],"type":"VEC3"},{"bufferView":3,"componentType":5126,"count":32,"max":[0.9998988509178162,0.9999000200405135],"min":[9.997995948651806e-05,9.995698928833008e-05],"type":"VEC2"},{"bufferView":4,"componentType":5121,"count":90,"max":[89],"min":[0],"type":"SCALAR"},{"bufferView":5,"componentType":5126,"count":90,"max":[9.248296737670898,-11.915122985839844,-31.7403621673584],"min":[7.248296737670898,-13.915122985839844,-31.74036407470703],"type":"VEC3"},{"bufferView":6,"componentType":5126,"count":90,"max":[3.163965811836533e-05,1.2528380466392264e-05,1.0],"min":[-2.4921380372688873e-06,-3.855309842037968e-05,0.9999999403953552],"type":"VEC3"},{"bufferView":7,"componentType":5126,"count":90,"max":[0.6344356536865234,-0.7729756832122803,0.00013280390703585,1.0],"min":[0.6343421339988708,-0.773052453994751,-0.00013280988787300885,1.0],"type":"VEC4"},{"bufferView":8,"componentType":5126,"count":90,"max":[0.9998988509178162,0.9999000200405135],"min":[9.997995948651806e-05,9.995698928833008e-05],"type":"VEC2"},{"bufferView":9,"componentType":5123,"count":47616,"max":[9055],"min":[0],"type":"SCALAR"},{"bufferView":10,"componentType":5126,"count":9056,"max":[0.9872313737869263,0.9975766539573669,0.9872314929962158],"min":[-0.9872310161590576,-0.9975766539573669,-0.9872310161590576],"type":"VEC3"},{"bufferView":11,"componentType":5126,"count":9056,"max":[1.0,0.999969482421875,1.0],"min":[-1.0,-1.0,-1.0],"type":"VEC3"},{"bufferView":12,"componentType":5126,"count":9056,"max":[1.0000003576278687,1.0],"min":[0.0,-1.1920928955078125e-07],"type":"VEC2"}],"asset":{"generator":"Soft8Soft Verge3D for Blender add-on","version":"2.0"},"bufferViews":[{"buffer":0,"byteLength":90,"byteOffset":0,"target":34963},{"buffer":0,"byteLength":384,"byteOffset":92,"target":34962},{"buffer":0,"byteLength":384,"byteOffset":476,"target":34962},{"buffer":0,"byteLength":256,"byteOffset":860,"target":34962},{"buffer":0,"byteLength":90,"byteOffset":1116,"target":34963},{"buffer":0,"byteLength":1080,"byteOffset":1208,"target":34962},{"buffer":0,"byteLength":1080,"byteOffset":2288,"target":34962},{"buffer":0,"byteLength":1440,"byteOffset":3368,"target":34962},{"buffer":0,"byteLength":720,"byteOffset":4808,"target":34962},{"buffer":0,"byteLength":95232,"byteOffset":5528,"target":34963},{"buffer":0,"byteLength":108672,"byteOffset":100760,"target":34962},{"buffer":0,"byteLength":108672,"byteOffset":209432,"target":34962},{"buffer":0,"byteLength":72448,"byteOffset":318104,"target":34962}],"buffers":[{"byteLength":390552,"uri":"Panorama_360.bin"}],"cameras":[{"extensions":{"S8S_v3d_camera_data":{"controls":"ORBIT","enablePan":false,"moveSpeed":-1.0,"orbitMaxDistance":7.010000228881836,"orbitMaxPolarAngle":3.1415927410125732,"orbitMinDistance":7.0,"orbitMinPolarAngle":0.0,"orbitTarget":[0.0,0.0,-0.0],"rotateSpeed":-0.699999988079071,"viewportFitInitialAspect":1.7777777777777777,"viewportFitType":"AUTO"}},"name":"Camera","perspective":{"aspectRatio":1.7777777777777777,"yfov":0.8097835915296632,"zfar":100.0,"znear":0.10000000149011612},"type":"perspective"}],"extensionsUsed":["S8S_v3d_texture_data","S8S_v3d_material_data","S8S_v3d_camera_data","S8S_v3d_mesh_data","S8S_v3d_node_data","S8S_v3d_scene_data"],"images":[{"uri":"Very-Basic-Info-icon.png"},{"uri":"image2.jpg"},{"uri":"environment.hdr"}],"materials":[{"alphaCutoff":0.5001,"alphaMode":"MASK","extensions":{"S8S_v3d_material_data":{"nodeGraph":{"edges":[{"fromNode":1,"fromOutput":0,"toInput":0,"toNode":0},{"fromNode":2,"fromOutput":0,"toInput":0,"toNode":1},{"fromNode":2,"fromOutput":1,"toInput":18,"toNode":1}],"nodes":[{"inputs":[[0,0,0,0],[0,0,0,0],[0.0,0.0,0.0]],"is_active_output":true,"name":"Material Output","outputs":[],"type":"OUTPUT_MATERIAL_BL"},{"inputs":[[0.800000011920929,0.800000011920929,0.800000011920929,1.0],0.0,[1.0,0.20000000298023224,0.10000000149011612],[0.800000011920929,0.800000011920929,0.800000011920929,1.0],0.0,0.3799999952316284,0.0,1.0,0.0,0.0,0.0,0.5,0.0,0.029999999329447746,1.4500000476837158,0.0,0.0,[0.0,0.0,0.0,1.0],1.0,[0.0,0.0,0.0],[0.0,0.0,0.0],[0.0,0.0,0.0]],"is_active_output":false,"name":"Principled BSDF","outputs":[[0,0,0,0]],"type":"BSDF_PRINCIPLED_BL"},{"inputs":[[0.0,0.0,0.0]],"is_active_output":false,"name":"Image Texture","outputs":[[0.0,0.0,0.0,0.0],0.0],"projection":"FLAT","projectionBlend":0.0,"texture":0,"type":"TEX_IMAGE_BL"}]},"useCastShadows":true}},"name":"Material"},{"doubleSided":true,"extensions":{"S8S_v3d_material_data":{"nodeGraph":{"edges":[{"fromNode":1,"fromOutput":0,"toInput":0,"toNode":0},{"fromNode":2,"fromOutput":0,"toInput":0,"toNode":1},{"fromNode":3,"fromOutput":0,"toInput":0,"toNode":4},{"fromNode":4,"fromOutput":0,"toInput":0,"toNode":2}],"nodes":[{"inputs":[[0,0,0,0],[0,0,0,0],[0.0,0.0,0.0]],"is_active_output":true,"name":"Material Output","outputs":[],"type":"OUTPUT_MATERIAL_BL"},{"inputs":[[0.800000011920929,0.800000011920929,0.800000011920929,1.0],0.0,[1.0,0.20000000298023224,0.10000000149011612],[0.800000011920929,0.800000011920929,0.800000011920929,1.0],0.0,0.21636363863945007,0.0,1.0,0.0,0.0,0.0,0.5,0.0,0.029999999329447746,1.4500000476837158,0.0,0.0,[0.0,0.0,0.0,1.0],1.0,[0.0,0.0,0.0],[0.0,0.0,0.0],[0.0,0.0,0.0]],"is_active_output":false,"name":"Principled BSDF","outputs":[[0,0,0,0]],"type":"BSDF_PRINCIPLED_BL"},{"inputs":[[0.0,0.0,0.0]],"is_active_output":false,"name":"Image Texture","outputs":[[0.0,0.0,0.0,0.0],0.0],"projection":"FLAT","projectionBlend":0.0,"texture":1,"type":"TEX_IMAGE_BL"},{"inputs":[],"is_active_output":false,"name":"UV Map","outputs":[[0.0,0.0,0.0]],"type":"UVMAP_BL","uvLayer":""},{"inputs":[[0.0,0.0,0.0],[0.0,0.0,0.0],[0.0,0.0,1.5707963705062866],[1.0,1.0,1.0]],"is_active_output":false,"name":"Mapping","outputs":[[0.0,0.0,0.0]],"type":"MAPPING_BL","vectorType":"POINT"}]},"renderSide":"DOUBLE","useCastShadows":true}},"name":"panorama_mat"},{"extensions":{"S8S_v3d_material_data":{"nodeGraph":{"edges":[{"fromNode":0,"fromOutput":0,"toInput":0,"toNode":1},{"fromNode":4,"fromOutput":0,"toInput":1,"toNode":2},{"fromNode":3,"fromOutput":0,"toInput":0,"toNode":2},{"fromNode":2,"fromOutput":0,"toInput":0,"toNode":0}],"nodes":[{"inputs":[[0.05087608844041824,0.05087608844041824,0.05087608844041824,1.0],1.0],"is_active_output":false,"name":"Background","outputs":[[0,0,0,0]],"type":"BACKGROUND_BL"},{"inputs":[[0,0,0,0],[0,0,0,0]],"is_active_output":true,"name":"World Output","outputs":[],"type":"OUTPUT_WORLD_BL"},{"blendType":"MIX","inputs":[0.5,[0.5,0.5,0.5,1.0],[0.05126946419477463,0.05126946419477463,0.05126946419477463,1.0]],"is_active_output":false,"name":"Mix","outputs":[[0.0,0.0,0.0,0.0]],"type":"MIX_RGB_BL","useClamp":false},{"inputs":[],"is_active_output":false,"name":"Light Path","outputs":[0.0,0.0,0.0,0.0,0.0,0.0,0.0,0.0,0.0,0.0,0.0,0.0,0.0],"type":"LIGHT_PATH_BL"},{"inputs":[[0.0,0.0,0.0]],"is_active_output":false,"name":"Environment Texture","outputs":[[0.0,0.0,0.0,0.0]],"projection":"EQUIRECTANGULAR","texture":2,"type":"TEX_ENVIRONMENT_BL"}]},"useCastShadows":true}},"name":"Verge3D_Environment_World"},{"emissiveFactor":[0.0,0.0,0.0],"extensions":{"S8S_v3d_material_data":{"nodeGraph":{"edges":[{"fromNode":1,"fromOutput":0,"toInput":0,"toNode":0}],"nodes":[{"inputs":[[0,0,0,0],[0,0,0,0],0.0],"is_active_output":true,"name":"Material Output","outputs":[],"type":"OUTPUT_MATERIAL_BL"},{"inputs":[[0.800000011920929,0.800000011920929,0.800000011920929,1.0],0.0,[0.0,0.0,0.0]],"is_active_output":false,"name":"Diffuse BSDF","outputs":[[0,0,0,0]],"type":"BSDF_DIFFUSE_BL"}]},"useCastShadows":true,"useShadows":true}},"name":"v3d_default_material"}],"meshes":[{"extensions":{"S8S_v3d_mesh_data":{"colorLayers":{},"uvLayers":{"UVMap":"TEXCOORD_0"}}},"name":"Cylinder","primitives":[{"attributes":{"NORMAL":2,"POSITION":1,"TEXCOORD_0":3},"indices":0,"material":0,"mode":4}]},{"extensions":{"S8S_v3d_mesh_data":{"colorLayers":{},"uvLayers":{}}},"name":"Cylinder.002","primitives":[{"attributes":{"NORMAL":6,"POSITION":5,"TANGENT":7,"TEXCOORD_0":8},"indices":4,"material":3,"mode":4}]},{"extensions":{"S8S_v3d_mesh_data":{"colorLayers":{},"uvLayers":{"UVMap":"TEXCOORD_0"}}},"name":"Sphere.001","primitives":[{"attributes":{"NORMAL":11,"POSITION":10,"TEXCOORD_0":12},"indices":9,"material":1,"mode":4}]}],"nodes":[{"extensions":{"S8S_v3d_node_data":{"frustumCulling":true,"groupNames":[],"hidden":false,"renderOrder":0,"useShadows":true}},"mesh":0,"name":"Cylinder","rotation":[-0.02022271417081356,0.009430008009076118,0.42251303791999817,0.9060821533203125],"scale":[1.0,0.9999999403953552,1.0],"translation":[-8.87751293182373,-8.751415252685547,-8.685253143310547]},{"camera":0,"extensions":{"S8S_v3d_node_data":{"frustumCulling":true,"groupNames":["Collection 1"],"hidden":false,"renderOrder":0}},"name":"Camera","rotation":[-0.054776471108198166,0.3955764174461365,0.023642566055059433,0.9164932370185852],"scale":[1.0,0.9999998211860657,0.9999998211860657],"translation":[0.4271121025085449,0.044878020882606506,0.6832113265991211]},{"extensions":{"S8S_v3d_node_data":{"frustumCulling":true,"groupNames":[],"hidden":false,"renderOrder":0,"useShadows":true}},"mesh":2,"name":"Sphere","scale":[46.44546127319336,46.44546127319336,46.44546127319336]},{"extensions":{"S8S_v3d_node_data":{"frustumCulling":true,"groupNames":[],"hidden":false,"renderOrder":0,"useShadows":true}},"mesh":1,"name":"Cylinder.002","rotation":[-0.02022271417081356,0.009430008009076118,0.42251303791999817,0.9060821533203125],"scale":[1.0,0.9999999403953552,1.0],"translation":[-8.87751293182373,-8.755762100219727,-8.700724601745605]}],"samplers":[{}],"scene":0,"scenes":[{"extensions":{"S8S_v3d_scene_data":{"aaMethod":"AUTO","iblEnvironmentMode":"PMREM","physicallyCorrectLights":true,"pmremMaxTileSize":256,"shadowMap":{"renderReverseSided":false,"renderSingleSided":true,"type":"PCFPOISSON"},"worldMaterial":2}},"extras":{"animFrameRate":24,"coordSystem":"Z_UP_RIGHT"},"name":"Scene","nodes":[2,0,3,1]}],"textures":[{"extensions":{"S8S_v3d_texture_data":{"colorSpace":"srgb"}},"name":"Very-Basic-Info-icon.png","sampler":0,"source":0},{"extensions":{"S8S_v3d_texture_data":{"colorSpace":"srgb"}},"name":"image2.jpg","sampler":0,"source":1},{"extensions":{"S8S_v3d_texture_data":{"colorSpace":"linear"}},"name":"environment.hdr","sampler":0,"source":2}]}
